# xmcd
#
# Track frame offsets:
# 150
# 18117
# 35760
# 48582
# 62810
# 84642
# 100625
# 118187
# 138492
# 151745
# 163227
# 191610
# 212650
# 229792
#
# Disc length: 3229 seconds
#
#
# Revision: 0
# Processed by: cddbd v1.5.2PL0 Copyright (c) Steve Scherf et al.
# Submitted via: FreeRIP 2.944 
#
DISCID=bc0c9b0e
DTITLE=Asaph Borba - Rio de Vida
DYEAR=1996
DGENRE=Gospel
TTITLE0=Meu Refúgio
TTITLE1=Eu me Alegrarei
TTITLE2=Minha Vida Está Em Ti Senhor
TTITLE3=Cristo O Senhor
TTITLE4=Rio de Vida
TTITLE5=Dou Graças
TTITLE6=O Teu Amor
TTITLE7=Somos Um Corpo
TTITLE8=A Graça do Reino
TTITLE9=Conquistou Meu Coração
TTITLE10=Quando entroEm Tua Presença
TTITLE11=Tu ès Digno
TTITLE12=Quando Olho Tua Santidade
TTITLE13=Gloria ao Teu Nome
EXTD=
EXTT0=
EXTT1=
EXTT2=
EXTT3=
EXTT4=
EXTT5=
EXTT6=
EXTT7=
EXTT8=
EXTT9=
EXTT10=
EXTT11=
EXTT12=
EXTT13=
PLAYORDER=
